<svg xmlns="http://www.w3.org/2000/svg" viewBox="0 0 512 512" role="img" aria-labelledby="title desc">
  <title id="title">HA Dyson Card</title>
  <desc id="desc">A simple bladeless Dyson-style fan icon.</desc>
  <defs>
    <linearGradient id="bg" x1="0" y1="0" x2="1" y2="1">
      <stop offset="0" stop-color="#f8fbff"/>
      <stop offset="1" stop-color="#dff5ff"/>
    </linearGradient>
    <linearGradient id="air" x1="0" y1="0" x2="0" y2="1">
      <stop offset="0" stop-color="#67e8f9"/>
      <stop offset="1" stop-color="#03a9f4"/>
    </linearGradient>
    <linearGradient id="fan" x1="0" y1="0" x2="1" y2="1">
      <stop offset="0" stop-color="#ffffff"/>
      <stop offset="1" stop-color="#e5edf4"/>
    </linearGradient>
    <filter id="shadow" x="-20%" y="-20%" width="140%" height="140%">
      <feDropShadow dx="0" dy="14" stdDeviation="16" flood-color="#0f172a" flood-opacity=".18"/>
    </filter>
  </defs>
  <rect width="512" height="512" rx="112" fill="url(#bg)"/>
  <g filter="url(#shadow)">
    <path d="M256 68c-68 0-122 57-122 128 0 55 25 100 60 132 18 17 29 38 29 63v5h66v-5c0-25 11-46 29-63 35-32 60-77 60-132 0-71-54-128-122-128Z" fill="url(#fan)"/>
    <path d="M256 108c-46 0-82 39-82 88 0 38 17 68 42 92 27 26 40 58 40 95 0-37 13-69 40-95 25-24 42-54 42-92 0-49-36-88-82-88Z" fill="url(#bg)" stroke="#cbd5e1" stroke-width="10"/>
    <path d="M256 130c-34 0-61 29-61 66 0 30 13 53 34 73 13 13 22 28 27 45 5-17 14-32 27-45 21-20 34-43 34-73 0-37-27-66-61-66Z" fill="url(#air)" opacity=".18"/>
    <path d="M223 394h66v42h-66z" fill="#e5edf4"/>
    <path d="M178 430h156c18 0 32 14 32 32v4H146v-4c0-18 14-32 32-32Z" fill="url(#fan)"/>
    <path d="M176 466h160" stroke="#94a3b8" stroke-width="10" stroke-linecap="round"/>
    <path d="M256 146v142" stroke="#38bdf8" stroke-width="8" stroke-linecap="round" opacity=".42"/>
    <path d="M218 184c21-18 55-18 76 0" fill="none" stroke="#38bdf8" stroke-width="8" stroke-linecap="round" opacity=".36"/>
  </g>
</svg>
