<svg xmlns="http://www.w3.org/2000/svg" viewBox="0 0 512 512" role="img" aria-labelledby="title desc">
  <title id="title">HA Dyson Card</title>
  <desc id="desc">A compact Dyson dashboard card logo with direction wheel and airflow bar.</desc>
  <defs>
    <linearGradient id="bg" x1="0" y1="0" x2="1" y2="1">
      <stop offset="0" stop-color="#f7fbff"/>
      <stop offset="1" stop-color="#dff4ff"/>
    </linearGradient>
    <linearGradient id="accent" x1="0" y1="1" x2="0" y2="0">
      <stop offset="0" stop-color="#03a9f4"/>
      <stop offset="1" stop-color="#67e8f9"/>
    </linearGradient>
    <filter id="shadow" x="-20%" y="-20%" width="140%" height="140%">
      <feDropShadow dx="0" dy="12" stdDeviation="14" flood-color="#0f172a" flood-opacity=".16"/>
    </filter>
  </defs>
  <rect width="512" height="512" rx="112" fill="url(#bg)"/>
  <g filter="url(#shadow)">
    <circle cx="238" cy="258" r="142" fill="#e5e7eb"/>
    <path d="M238 258 L306 381 A142 142 0 0 1 96 298 Z" fill="#8bd3ea" opacity=".76"/>
    <path d="M238 258 L224 84 A142 142 0 0 1 252 84 Z" fill="#64748b" opacity=".46"/>
    <circle cx="238" cy="258" r="82" fill="#f8fafc" stroke="#dbeafe" stroke-width="8"/>
    <path d="M238 258 L328 291 A96 96 0 0 1 238 354 Z" fill="#bdefff"/>
    <line x1="238" y1="176" x2="238" y2="340" stroke="#cbd5e1" stroke-width="2"/>
    <line x1="166" y1="216" x2="310" y2="300" stroke="#cbd5e1" stroke-width="2"/>
    <line x1="166" y1="300" x2="310" y2="216" stroke="#cbd5e1" stroke-width="2"/>
    <circle cx="151" cy="373" r="17" fill="#ffffff" stroke="#1f2937" stroke-width="10"/>
  </g>
  <g filter="url(#shadow)">
    <rect x="402" y="128" width="50" height="232" rx="25" fill="url(#accent)"/>
    <path d="M402 128 h50 v92 h-50z" fill="#e0f7ff" opacity=".52"/>
    <rect x="414" y="248" width="26" height="8" rx="4" fill="#ffffff"/>
    <rect x="396" y="382" width="62" height="48" rx="24" fill="#c9f1ff" stroke="#7dd3fc" stroke-width="3"/>
    <path d="M427 397 v15" stroke="#0284c7" stroke-width="6" stroke-linecap="round"/>
    <path d="M416 407a13 13 0 1 0 22 0" fill="none" stroke="#0284c7" stroke-width="6" stroke-linecap="round"/>
  </g>
</svg>
